<?xml version="1.0" encoding="UTF-8" standalone="no"?>
<!-- Created with Inkscape (http://www.inkscape.org/) -->

<svg
   width="250"
   height="250"
   viewBox="0 0 66.145832 66.145833"
   version="1.1"
   id="svg1"
   inkscape:export-filename="masthead_logo.png"
   inkscape:export-xdpi="38.400002"
   inkscape:export-ydpi="38.400002"
   inkscape:version="1.3.2 (091e20e, 2023-11-25)"
   sodipodi:docname="favicon light.svg"
   xmlns:inkscape="http://www.inkscape.org/namespaces/inkscape"
   xmlns:sodipodi="http://sodipodi.sourceforge.net/DTD/sodipodi-0.dtd"
   xmlns="http://www.w3.org/2000/svg"
   xmlns:svg="http://www.w3.org/2000/svg">
  <sodipodi:namedview
     id="namedview1"
     pagecolor="#ffffff"
     bordercolor="#000000"
     borderopacity="0.25"
     inkscape:showpageshadow="2"
     inkscape:pageopacity="0.0"
     inkscape:pagecheckerboard="0"
     inkscape:deskcolor="#d1d1d1"
     inkscape:document-units="mm"
     inkscape:zoom="2.4194191"
     inkscape:cx="106.22385"
     inkscape:cy="100.43733"
     inkscape:window-width="1728"
     inkscape:window-height="1051"
     inkscape:window-x="0"
     inkscape:window-y="38"
     inkscape:window-maximized="0"
     inkscape:current-layer="layer1" />
  <defs
     id="defs1">
    <marker
       markerWidth="0.021"
       markerHeight="0.001"
       refX="10.5"
       refY="0.5"
       orient="auto"
       id="marker15"
       viewBox="0 0 21 1"
       preserveAspectRatio="xMidYMid"
       markerUnits="strokeWidth">
      <path
         style="fill:#000000;fill-opacity:0;stroke:url(#linearGradient14);stroke-width:0.1;stroke-linecap:round;stroke-linejoin:round;stroke-miterlimit:10;stroke-dasharray:none;stroke-dashoffset:73.5;stroke-opacity:1"
         d="m 22.5,8.0000001 c 0.666667,0 1.333334,0 2,0"
         id="path12"
         sodipodi:nodetypes="cc"
         transform="matrix(10,0,0,10,-224.5,-79.500001)" />
    </marker>
    <marker
       markerWidth="0.021"
       markerHeight="0.001"
       refX="10.5"
       refY="0.5"
       orient="auto"
       id="marker15-7"
       viewBox="0 0 21 1"
       preserveAspectRatio="xMidYMid"
       markerUnits="strokeWidth">
      <path
         style="fill:#000000;fill-opacity:0;stroke:url(#linearGradient14);stroke-width:0.1;stroke-linecap:round;stroke-linejoin:round;stroke-miterlimit:10;stroke-dasharray:none;stroke-dashoffset:73.5;stroke-opacity:1"
         d="m 22.5,8.0000001 c 0.666667,0 1.333334,0 2,0"
         id="path12-8"
         sodipodi:nodetypes="cc"
         transform="matrix(10,0,0,10,-224.5,-79.500001)" />
    </marker>
    <marker
       markerWidth="0.021"
       markerHeight="0.001"
       refX="10.5"
       refY="0.5"
       orient="auto"
       id="marker15-8"
       viewBox="0 0 21 1"
       preserveAspectRatio="xMidYMid"
       markerUnits="strokeWidth">
      <path
         style="fill:#000000;fill-opacity:0;stroke:url(#linearGradient14);stroke-width:0.1;stroke-linecap:round;stroke-linejoin:round;stroke-miterlimit:10;stroke-dasharray:none;stroke-dashoffset:73.5;stroke-opacity:1"
         d="m 22.5,8.0000001 c 0.666667,0 1.333334,0 2,0"
         id="path12-2"
         sodipodi:nodetypes="cc"
         transform="matrix(10,0,0,10,-224.5,-79.500001)" />
    </marker>
    <marker
       markerWidth="0.021"
       markerHeight="0.001"
       refX="10.5"
       refY="0.5"
       orient="auto"
       id="marker15-4"
       viewBox="0 0 21 1"
       preserveAspectRatio="xMidYMid"
       markerUnits="strokeWidth">
      <path
         style="fill:#000000;fill-opacity:0;stroke:url(#linearGradient14);stroke-width:0.1;stroke-linecap:round;stroke-linejoin:round;stroke-miterlimit:10;stroke-dasharray:none;stroke-dashoffset:73.5;stroke-opacity:1"
         d="m 22.5,8.0000001 c 0.666667,0 1.333334,0 2,0"
         id="path12-5"
         sodipodi:nodetypes="cc"
         transform="matrix(10,0,0,10,-224.5,-79.500001)" />
    </marker>
    <filter
       inkscape:collect="always"
       style="color-interpolation-filters:sRGB"
       id="filter2"
       x="-0.30764501"
       y="-0.15372837"
       width="1.61529"
       height="1.3078393">
      <feGaussianBlur
         inkscape:collect="always"
         stdDeviation="1.038268"
         id="feGaussianBlur2" />
    </filter>
  </defs>
  <g
     inkscape:label="Livello 1"
     inkscape:groupmode="layer"
     id="layer1">
    <path
       fill="none"
       stroke="#000000"
       stroke-width="0.46071"
       d="m 33.072921,65.915479 c 14.391428,0 22.391819,0 27.617196,-5.225366 5.225364,-5.225377 5.225364,-13.225768 5.225364,-27.617196 0,-14.391428 0,-22.391819 -5.225364,-27.6171965 C 55.46474,0.23035503 47.464349,0.23035503 33.072921,0.23035503 c -14.391428,0 -22.391819,0 -27.6171967,5.22536547 C 0.23035885,10.681098 0.23035885,18.681489 0.23035885,33.072917 c 0,14.391428 0,22.391819 5.22536545,27.617196 5.2253777,5.225366 13.2257687,5.225366 27.6171967,5.225366 z"
       id="path1-4"
       style="stroke-width:0;stroke-dasharray:none;fill:#ececec;fill-opacity:1" />
    <g
       id="g2"
       transform="translate(-4.4658018,0.00539421)">
      <path
         style="display:inline;fill:#f2f2f2;fill-opacity:0.00366301;fill-rule:nonzero;stroke:#1a1a1a;stroke-width:5.77458;stroke-linecap:round;stroke-linejoin:round;stroke-miterlimit:10;stroke-dasharray:none;stroke-opacity:1"
         d="m 22.139297,13.818764 v 10.586727 c 0,0 0,-8.661868 -1.924858,-13.474017 10.586724,13.474017 13.47402,13.474017 18.28616,13.474017 4.81215,0 7.699438,-2.88729 16.361306,-13.474015 0,0 -0.481215,17.323733 -0.481215,22.135881 0,15.398875 0.481215,22.135883 0.481215,22.135883"
         id="path8-7"
         sodipodi:nodetypes="ccczcsc"
         inkscape:label="M" />
      <path
         style="display:inline;mix-blend-mode:normal;fill:#000000;fill-opacity:0.00392157;fill-rule:nonzero;stroke:#ececec;stroke-width:8.66184;stroke-linecap:round;stroke-linejoin:round;stroke-miterlimit:10;stroke-dasharray:none;stroke-opacity:1;marker-mid:url(#marker15-4);filter:url(#filter2)"
         d="m 22.097789,33.073004 0.04151,22.130238 c 0,-16.361304 0,-16.361304 4.812148,-23.098312 2.016948,-2.823728 7.699437,-9.624297 17.323732,-21.173453 -13.474014,17.323734 -15.398873,18.286164 -15.398873,23.098313 0,4.812148 5.774578,10.586726 15.398873,21.173452"
         id="path7-8"
         sodipodi:nodetypes="ccsccc"
         inkscape:label="K contorno" />
      <path
         style="display:inline;fill:#ececec;fill-opacity:0.00366301;fill-rule:nonzero;stroke:#1a1a1a;stroke-width:5.77458;stroke-linecap:round;stroke-linejoin:round;stroke-miterlimit:10;stroke-dasharray:none;stroke-opacity:1"
         d="m 22.139297,31.623714 v 23.579528 c 0,-16.361305 0,-16.361307 4.812149,-23.098315 2.016949,-2.823727 7.699436,-9.624294 17.323731,-21.173451 -13.474013,17.323733 -15.398873,18.286163 -15.398873,23.098311 0,4.812148 5.774578,10.586726 15.398873,21.173453"
         id="path7"
         sodipodi:nodetypes="ccsccc"
         inkscape:label="K" />
    </g>
  </g>
</svg>
